<svg width="200" height="100" viewBox="0 0 200 100" fill="none" xmlns="http://www.w3.org/2000/svg">
<g clip-path="url(#clip0_45_2)">
<g filter="url(#filter0_d_45_2)">
<path d="M25.7828 53.8C25.7828 55.64 27.1028 56.56 29.7428 56.56C32.4095 56.56 33.7428 55.7333 33.7428 54.08C33.7428 53.2 33.2895 52.48 32.3828 51.92C31.4761 51.36 30.3695 50.8933 29.0628 50.52C27.7828 50.1467 26.4895 49.72 25.1828 49.24C23.9028 48.7333 22.8095 47.96 21.9028 46.92C20.9961 45.8533 20.5428 44.5333 20.5428 42.96C20.5428 36.2667 24.8495 32.92 33.4628 32.92C36.6095 32.92 38.9828 33.52 40.5828 34.72C42.2095 35.8933 43.0228 37.5333 43.0228 39.64C43.0228 40.4133 42.9161 41.16 42.7028 41.88C42.5161 42.5733 42.3161 43.0667 42.1028 43.36L41.7828 43.84H34.7028C35.2895 43.2267 35.5828 42.4533 35.5828 41.52C35.5828 39.7867 34.4495 38.92 32.1828 38.92C29.3295 38.92 27.9028 39.8267 27.9028 41.64C27.9028 42.5467 28.3561 43.2667 29.2628 43.8C30.1695 44.3333 31.2628 44.76 32.5428 45.08C33.8495 45.3733 35.1561 45.7467 36.4628 46.2C37.7695 46.6533 38.8761 47.4133 39.7828 48.48C40.6895 49.52 41.1428 50.88 41.1428 52.56C41.1428 55.9467 40.1295 58.4667 38.1028 60.12C36.0761 61.7467 32.9561 62.56 28.7428 62.56C24.5295 62.56 21.6495 61.8133 20.1028 60.32C18.9561 59.2 18.3828 57.6533 18.3828 55.68C18.3828 54.9333 18.4628 54.12 18.6228 53.24L18.7428 52.6H25.9428L25.8628 53.08C25.8095 53.3467 25.7828 53.5867 25.7828 53.8ZM72.6003 39.44H62.7603L58.8003 62H51.5603L55.5203 39.44H45.6403L46.7603 33.2H73.7203L72.6003 39.44ZM83.8672 62L84.1072 55.72H77.4272L75.4672 62H67.8272L78.1072 33.2H91.3072L91.4672 62H83.8672ZM82.2272 40.2L79.0672 50.36H84.3072L84.7472 40.2H82.2272ZM111.932 33.2C114.972 33.2 117.132 33.8667 118.412 35.2C119.372 36.2133 119.852 37.4933 119.852 39.04C119.852 39.5733 119.799 40.1333 119.692 40.72L119.132 43.84C118.812 45.5733 118.252 46.9733 117.452 48.04C116.679 49.1067 115.812 49.8667 114.852 50.32L118.492 62H110.412L107.052 51.24H104.572L102.932 62H95.2522L100.332 33.2H111.932ZM109.412 39.44H106.412L105.372 46.4H108.172C109.586 46.4 110.599 46.0667 111.212 45.4C111.826 44.7067 112.132 43.8 112.132 42.68C112.132 40.52 111.226 39.44 109.412 39.44ZM139.742 62H121.502L126.582 33.2H133.782L129.822 55.76H140.862L139.742 62ZM155.228 33.2L150.188 62H142.948L148.028 33.2H155.228ZM185.318 33.2L174.038 47.72L180.238 62H172.038L168.118 52.8L161.518 62H153.318L163.918 47.72L158.398 33.2H166.598L169.918 42.56L177.118 33.2H185.318Z" fill="url(#paint0_linear_45_2)" shape-rendering="crispEdges"/>
</g>
</g>
<defs>
<filter id="filter0_d_45_2" x="14.3828" y="32.92" width="174.936" height="37.64" filterUnits="userSpaceOnUse" color-interpolation-filters="sRGB">
<feFlood flood-opacity="0" result="BackgroundImageFix"/>
<feColorMatrix in="SourceAlpha" type="matrix" values="0 0 0 0 0 0 0 0 0 0 0 0 0 0 0 0 0 0 127 0" result="hardAlpha"/>
<feOffset dy="4"/>
<feGaussianBlur stdDeviation="2"/>
<feComposite in2="hardAlpha" operator="out"/>
<feColorMatrix type="matrix" values="0 0 0 0 0 0 0 0 0 0 0 0 0 0 0 0 0 0 0.25 0"/>
<feBlend mode="normal" in2="BackgroundImageFix" result="effect1_dropShadow_45_2"/>
<feBlend mode="normal" in="SourceGraphic" in2="effect1_dropShadow_45_2" result="shape"/>
</filter>
<linearGradient id="paint0_linear_45_2" x1="0" y1="50" x2="200" y2="50" gradientUnits="userSpaceOnUse">
<stop offset="0.177083" stop-color="white"/>
<stop offset="0.895833" stop-color="#FF1D1D" stop-opacity="0.3"/>
</linearGradient>
<clipPath id="clip0_45_2">
<rect width="200" height="100" rx="40" fill="white"/>
</clipPath>
</defs>
</svg>
