<svg width="500" height="300" viewBox="0 0 500 300" fill="none" xmlns="http://www.w3.org/2000/svg">
<g clip-path="url(#clip0_45_2)">
<rect width="500" height="300" rx="40" fill="#101010"/>
<g filter="url(#filter0_d_45_2)">
<path d="M132.782 164.42C132.782 169.647 131.755 174.407 129.702 178.7C127.742 182.9 125.035 186.54 121.582 189.62C118.222 192.7 114.208 195.08 109.542 196.76C104.968 198.44 100.022 199.28 94.7017 199.28C90.9684 199.28 87.2351 198.3 83.5017 196.34C79.7684 194.287 76.1751 191.067 72.7217 186.68L83.0817 166.38C83.7351 167.593 84.7151 168.853 86.0217 170.16C87.3284 171.373 88.7751 172.447 90.3617 173.38C92.0417 174.313 93.6751 175.107 95.2617 175.76C96.9417 176.32 98.4351 176.6 99.7417 176.6C100.862 176.6 102.028 176.413 103.242 176.04C104.455 175.667 105.575 175.107 106.602 174.36C107.628 173.613 108.422 172.773 108.982 171.84C109.635 170.813 109.962 169.647 109.962 168.34C109.962 166.1 109.215 164.047 107.722 162.18C106.322 160.22 104.548 158.4 102.402 156.72C100.255 154.947 97.9217 153.173 95.4017 151.4C92.8817 149.627 90.5484 147.76 88.4017 145.8C86.3484 143.84 84.5751 141.647 83.0817 139.22C81.5884 136.793 80.8417 134.087 80.8417 131.1C80.8417 126.247 82.2884 121.72 85.1817 117.52C88.0751 113.32 91.6684 109.727 95.9617 106.74C100.348 103.66 105.108 101.233 110.242 99.46C115.375 97.6867 120.228 96.8 124.802 96.8C127.322 96.8 129.702 97.1267 131.942 97.78C134.182 98.34 136.095 99.32 137.682 100.72C139.362 102.027 140.668 103.707 141.602 105.76C142.628 107.813 143.142 110.38 143.142 113.46C143.142 114.767 143.002 116.073 142.722 117.38C142.535 118.687 142.348 120.087 142.162 121.58L121.862 127.46C122.048 126.713 122.188 125.967 122.282 125.22C122.468 124.473 122.562 123.727 122.562 122.98C122.562 120.18 122.048 118.173 121.022 116.96C120.088 115.653 118.828 115 117.242 115C116.495 115 115.562 115.28 114.442 115.84C113.415 116.4 112.342 117.147 111.222 118.08C110.195 118.92 109.308 119.947 108.562 121.16C107.815 122.373 107.442 123.68 107.442 125.08C107.442 127.32 108.048 129.187 109.262 130.68C110.568 132.173 112.155 133.573 114.022 134.88C115.888 136.187 117.895 137.54 120.042 138.94C122.282 140.247 124.335 141.973 126.202 144.12C128.068 146.267 129.608 148.973 130.822 152.24C132.128 155.413 132.782 159.473 132.782 164.42ZM143.518 199.14C145.665 188.873 147.718 178.747 149.678 168.76C150.518 164.56 151.358 160.173 152.198 155.6C153.038 151.027 153.831 146.547 154.578 142.16C155.418 137.68 156.118 133.387 156.678 129.28C157.331 125.08 157.891 121.253 158.358 117.8C156.211 117.52 154.018 117.427 151.778 117.52C149.631 117.613 147.485 117.333 145.338 116.68C145.431 115.187 145.478 113.46 145.478 111.5C145.478 109.54 145.525 107.58 145.618 105.62C145.711 103.473 145.805 101.187 145.898 98.76C148.325 98.9467 150.751 99.0867 153.178 99.18C155.605 99.2733 158.031 99.32 160.458 99.32C165.218 99.32 169.791 99.2267 174.178 99.04C178.658 98.76 182.765 98.48 186.498 98.2C190.325 97.8267 194.058 97.4067 197.698 96.94L196.158 104.5C195.691 106.647 195.225 108.84 194.758 111.08C194.385 113.32 194.011 115.233 193.638 116.82C191.585 117.38 189.485 117.8 187.338 118.08C185.285 118.267 183.231 118.547 181.178 118.92C180.525 122.093 179.825 125.64 179.078 129.56C178.331 133.387 177.585 137.4 176.838 141.6C176.185 145.707 175.531 149.907 174.878 154.2C174.225 158.493 173.571 162.6 172.918 166.52C171.425 175.76 170.025 185.327 168.718 195.22L143.518 199.14ZM230.153 196.2C227.819 196.573 225.253 196.993 222.453 197.46C219.653 197.927 217.133 198.347 214.893 198.72C215.266 195.64 215.639 192.607 216.013 189.62C216.293 187.007 216.526 184.393 216.713 181.78C216.993 179.167 217.226 176.927 217.413 175.06H205.233L199.633 195.22C197.579 195.5 195.153 195.827 192.353 196.2C189.553 196.48 186.939 196.76 184.513 197.04C181.526 197.413 178.586 197.787 175.693 198.16C179.426 185.747 183.113 173.52 186.753 161.48C188.246 156.44 189.786 151.167 191.373 145.66C193.053 140.153 194.686 134.693 196.273 129.28C197.953 123.773 199.539 118.5 201.033 113.46C202.526 108.42 203.833 103.8 204.953 99.6C211.299 99.1333 217.739 98.5733 224.273 97.92C230.899 97.2667 237.339 96.38 243.593 95.26C243.313 98.2467 242.986 101.98 242.613 106.46C242.333 110.847 242.053 115.653 241.773 120.88C241.493 126.107 241.213 131.567 240.933 137.26C240.653 142.953 240.373 148.553 240.093 154.06C239.626 166.94 239.113 180.613 238.553 195.08C235.753 195.547 232.953 195.92 230.153 196.2ZM208.593 161.06C208.966 161.06 209.619 161.06 210.553 161.06C211.579 160.967 212.606 160.92 213.633 160.92C214.753 160.827 215.779 160.78 216.713 160.78C217.646 160.687 218.299 160.593 218.673 160.5C218.673 159.94 218.719 159.007 218.813 157.7C218.999 156.3 219.139 154.76 219.233 153.08C219.419 151.307 219.606 149.393 219.793 147.34C219.979 145.287 220.166 143.28 220.353 141.32C220.726 136.56 221.193 131.427 221.753 125.92L222.593 113.74L220.493 113.88L217.273 125.92L208.593 161.06ZM239.759 199.14C242.279 186.727 244.706 174.593 247.039 162.74C247.879 157.7 248.813 152.473 249.839 147.06C250.866 141.553 251.799 136.14 252.639 130.82C253.573 125.407 254.413 120.227 255.159 115.28C255.999 110.24 256.653 105.667 257.119 101.56C262.439 99.88 268.179 98.6667 274.339 97.92C280.499 97.08 286.613 96.66 292.679 96.66C296.319 96.66 299.306 97.08 301.639 97.92C304.066 98.76 305.933 99.9733 307.239 101.56C308.639 103.053 309.619 104.827 310.179 106.88C310.739 108.933 311.019 111.22 311.019 113.74C311.019 117.473 310.366 121.16 309.059 124.8C307.753 128.347 305.979 131.753 303.739 135.02C301.593 138.193 299.073 141.133 296.179 143.84C293.379 146.453 290.346 148.6 287.079 150.28C288.759 154.013 290.533 158.12 292.399 162.6C294.359 166.987 296.179 171.187 297.859 175.2C299.726 179.867 301.639 184.533 303.599 189.2L281.899 196.76C280.033 190.32 278.353 184.253 276.859 178.56C276.206 176.227 275.553 173.847 274.899 171.42C274.246 168.9 273.639 166.567 273.079 164.42C272.519 162.18 272.053 160.22 271.679 158.54C271.306 156.86 271.073 155.553 270.979 154.62L269.159 155.18C268.599 158.167 267.899 161.807 267.059 166.1C266.313 170.393 265.613 174.547 264.959 178.56C264.119 183.32 263.279 188.22 262.439 193.26L239.759 199.14ZM272.659 138.38C274.433 138.193 276.579 137.447 279.099 136.14C281.713 134.833 284.186 133.293 286.519 131.52C288.853 129.653 290.859 127.74 292.539 125.78C294.219 123.82 295.059 122.093 295.059 120.6C295.059 119.573 294.733 118.78 294.079 118.22C293.426 117.567 292.493 117.1 291.279 116.82C290.159 116.447 288.899 116.213 287.499 116.12C286.099 116.027 284.653 115.98 283.159 115.98C282.133 115.98 281.059 116.027 279.939 116.12C278.913 116.12 277.979 116.12 277.139 116.12L272.659 138.38ZM340.046 194.52C337.153 194.52 334.073 194.613 330.806 194.8C327.633 194.987 324.413 195.267 321.146 195.64C317.88 196.013 314.66 196.527 311.486 197.18C308.406 197.74 305.606 198.44 303.086 199.28C303.646 195.08 304.3 190.413 305.046 185.28C305.793 180.147 306.633 174.827 307.566 169.32C308.593 163.813 309.573 158.26 310.506 152.66C311.533 147.06 312.56 141.693 313.586 136.56C315.92 124.333 318.393 111.873 321.006 99.18L345.506 95.96C342.986 106.787 340.56 117.333 338.226 127.6C337.2 131.987 336.173 136.56 335.146 141.32C334.12 145.987 333.14 150.56 332.206 155.04C331.273 159.52 330.433 163.86 329.686 168.06C328.94 172.26 328.333 175.993 327.866 179.26C330.2 179.073 332.673 178.98 335.286 178.98C337.993 178.887 340.373 178.84 342.426 178.84C342.52 180.613 342.66 182.387 342.846 184.16C343.033 185.84 343.22 187.38 343.406 188.78C343.686 190.18 343.873 191.44 343.966 192.56C344.153 193.587 344.293 194.287 344.386 194.66C343.64 194.66 342.893 194.66 342.146 194.66C341.493 194.567 340.793 194.52 340.046 194.52ZM365.772 196.2C364.932 196.2 363.299 196.34 360.872 196.62C358.446 196.807 355.926 197.087 353.312 197.46C350.699 197.74 348.319 198.02 346.172 198.3C344.119 198.58 342.999 198.767 342.812 198.86C343.932 194.847 345.052 190.413 346.172 185.56C347.292 180.613 348.412 175.48 349.532 170.16C350.746 164.747 351.866 159.287 352.892 153.78C354.012 148.273 355.086 142.953 356.112 137.82C358.446 125.873 360.732 113.6 362.972 101L384.812 97.5C382.386 110.007 379.959 122.28 377.532 134.32C376.506 139.453 375.432 144.773 374.312 150.28C373.286 155.787 372.259 161.247 371.232 166.66C370.299 172.073 369.319 177.347 368.292 182.48C367.359 187.52 366.519 192.093 365.772 196.2ZM431.32 192.56C431.133 192.653 430.48 192.84 429.36 193.12C428.24 193.4 426.84 193.773 425.16 194.24C423.48 194.707 421.613 195.22 419.56 195.78C417.6 196.34 415.64 196.9 413.68 197.46C411.813 198.02 410.04 198.533 408.36 199C406.68 199.56 405.373 200.027 404.44 200.4C404.16 196.667 403.926 193.027 403.74 189.48C403.553 186.4 403.32 183.32 403.04 180.24C402.853 177.16 402.713 174.593 402.62 172.54C401.78 174.593 400.66 177.16 399.26 180.24C397.953 183.32 396.646 186.353 395.34 189.34C393.753 192.793 392.12 196.293 390.44 199.84L366.64 197.74C371.306 189.433 375.973 181.22 380.64 173.1C385.306 164.98 389.6 156.487 393.52 147.62C392.96 143.42 392.4 139.687 391.84 136.42C391.373 133.153 390.813 129.933 390.16 126.76C389.506 123.587 388.806 120.413 388.06 117.24C387.313 113.973 386.566 110.287 385.82 106.18L408.22 96.94C408.686 101.327 409.2 106.18 409.76 111.5C410.413 116.82 410.973 121.72 411.44 126.2C413.586 121.533 415.686 116.867 417.74 112.2C419.886 107.533 422.08 102.913 424.32 98.34L444.62 103.8C442.193 107.907 440 111.687 438.04 115.14C436.08 118.593 434.213 122.047 432.44 125.5C430.666 128.953 428.893 132.5 427.12 136.14C425.346 139.687 423.433 143.653 421.38 148.04C421.94 152.147 422.593 156.02 423.34 159.66C424.086 163.3 424.88 166.893 425.72 170.44C426.653 173.987 427.54 177.58 428.38 181.22C429.313 184.767 430.293 188.547 431.32 192.56Z" fill="url(#paint0_linear_45_2)" shape-rendering="crispEdges"/>
</g>
</g>
<defs>
<filter id="filter0_d_45_2" x="68.7217" y="95.26" width="379.898" height="113.14" filterUnits="userSpaceOnUse" color-interpolation-filters="sRGB">
<feFlood flood-opacity="0" result="BackgroundImageFix"/>
<feColorMatrix in="SourceAlpha" type="matrix" values="0 0 0 0 0 0 0 0 0 0 0 0 0 0 0 0 0 0 127 0" result="hardAlpha"/>
<feOffset dy="4"/>
<feGaussianBlur stdDeviation="2"/>
<feComposite in2="hardAlpha" operator="out"/>
<feColorMatrix type="matrix" values="0 0 0 0 0 0 0 0 0 0 0 0 0 0 0 0 0 0 0.25 0"/>
<feBlend mode="normal" in2="BackgroundImageFix" result="effect1_dropShadow_45_2"/>
<feBlend mode="normal" in="SourceGraphic" in2="effect1_dropShadow_45_2" result="shape"/>
</filter>
<linearGradient id="paint0_linear_45_2" x1="0" y1="150" x2="500" y2="150" gradientUnits="userSpaceOnUse">
<stop offset="0.177083" stop-color="white"/>
<stop offset="0.895833" stop-color="#FF1D1D" stop-opacity="0.3"/>
</linearGradient>
<clipPath id="clip0_45_2">
<rect width="500" height="300" rx="40" fill="white"/>
</clipPath>
</defs>
</svg>
