<svg width="92" height="24" viewBox="0 0 92 24" fill="none" xmlns="http://www.w3.org/2000/svg">
<g filter="url(#filter0_d_50_3)">
<path d="M7.89141 10.9C7.89141 11.82 8.55141 12.28 9.87141 12.28C11.2047 12.28 11.8714 11.8667 11.8714 11.04C11.8714 10.6 11.6447 10.24 11.1914 9.96C10.7381 9.68 10.1847 9.44667 9.53141 9.26C8.89141 9.07333 8.24474 8.86 7.59141 8.62C6.95141 8.36667 6.40474 7.98 5.95141 7.46C5.49807 6.92667 5.27141 6.26667 5.27141 5.48C5.27141 2.13333 7.42474 0.459999 11.7314 0.459999C13.3047 0.459999 14.4914 0.759999 15.2914 1.36C16.1047 1.94667 16.5114 2.76667 16.5114 3.82C16.5114 4.20667 16.4581 4.58 16.3514 4.94C16.2581 5.28667 16.1581 5.53333 16.0514 5.68L15.8914 5.92H12.3514C12.6447 5.61333 12.7914 5.22667 12.7914 4.76C12.7914 3.89333 12.2247 3.46 11.0914 3.46C9.66474 3.46 8.95141 3.91333 8.95141 4.82C8.95141 5.27333 9.17807 5.63333 9.63141 5.9C10.0847 6.16667 10.6314 6.38 11.2714 6.54C11.9247 6.68667 12.5781 6.87333 13.2314 7.1C13.8847 7.32667 14.4381 7.70667 14.8914 8.24C15.3447 8.76 15.5714 9.44 15.5714 10.28C15.5714 11.9733 15.0647 13.2333 14.0514 14.06C13.0381 14.8733 11.4781 15.28 9.37141 15.28C7.26474 15.28 5.82474 14.9067 5.05141 14.16C4.47807 13.6 4.19141 12.8267 4.19141 11.84C4.19141 11.4667 4.23141 11.06 4.31141 10.62L4.37141 10.3H7.97141L7.93141 10.54C7.90474 10.6733 7.89141 10.7933 7.89141 10.9ZM31.3002 3.72H26.3802L24.4002 15H20.7802L22.7602 3.72H17.8202L18.3802 0.599999H31.8602L31.3002 3.72ZM36.9336 15L37.0536 11.86H33.7136L32.7336 15H28.9136L34.0536 0.599999H40.6536L40.7336 15H36.9336ZM36.1136 4.1L34.5336 9.18H37.1536L37.3736 4.1H36.1136ZM50.9661 0.599999C52.4861 0.599999 53.5661 0.933333 54.2061 1.6C54.6861 2.10667 54.9261 2.74667 54.9261 3.52C54.9261 3.78667 54.8994 4.06667 54.8461 4.36L54.5661 5.92C54.4061 6.78667 54.1261 7.48667 53.7261 8.02C53.3394 8.55333 52.9061 8.93333 52.4261 9.16L54.2461 15H50.2061L48.5261 9.62H47.2861L46.4661 15H42.6261L45.1661 0.599999H50.9661ZM49.7061 3.72H48.2061L47.6861 7.2H49.0861C49.7928 7.2 50.2994 7.03333 50.6061 6.7C50.9128 6.35333 51.0661 5.9 51.0661 5.34C51.0661 4.26 50.6128 3.72 49.7061 3.72ZM64.8711 15H55.7511L58.2911 0.599999H61.8911L59.9111 11.88H65.4311L64.8711 15ZM72.6138 0.599999L70.0938 15H66.4738L69.0138 0.599999H72.6138ZM87.6591 0.599999L82.0191 7.86L85.1191 15H81.0191L79.0591 10.4L75.7591 15H71.6591L76.9591 7.86L74.1991 0.599999H78.2991L79.9591 5.28L83.5591 0.599999H87.6591Z" fill="url(#paint0_linear_50_3)" shape-rendering="crispEdges"/>
</g>
<defs>
<filter id="filter0_d_50_3" x="0.191406" y="0.459991" width="91.4678" height="22.82" filterUnits="userSpaceOnUse" color-interpolation-filters="sRGB">
<feFlood flood-opacity="0" result="BackgroundImageFix"/>
<feColorMatrix in="SourceAlpha" type="matrix" values="0 0 0 0 0 0 0 0 0 0 0 0 0 0 0 0 0 0 127 0" result="hardAlpha"/>
<feOffset dy="4"/>
<feGaussianBlur stdDeviation="2"/>
<feComposite in2="hardAlpha" operator="out"/>
<feColorMatrix type="matrix" values="0 0 0 0 0 0 0 0 0 0 0 0 0 0 0 0 0 0 0.25 0"/>
<feBlend mode="normal" in2="BackgroundImageFix" result="effect1_dropShadow_50_3"/>
<feBlend mode="normal" in="SourceGraphic" in2="effect1_dropShadow_50_3" result="shape"/>
</filter>
<linearGradient id="paint0_linear_50_3" x1="-5" y1="9" x2="95" y2="9" gradientUnits="userSpaceOnUse">
<stop offset="0.177083" stop-color="white"/>
<stop offset="0.895833" stop-color="#FF1D1D" stop-opacity="0.3"/>
</linearGradient>
</defs>
</svg>
