<svg width="3000" height="1500" viewBox="0 0 3000 1500" fill="none" xmlns="http://www.w3.org/2000/svg">
<g id="STARLIX" filter="url(#filter0_d_50_3)">
<path d="M386.742 814C386.742 841.6 406.542 855.4 446.142 855.4C486.142 855.4 506.142 843 506.142 818.2C506.142 805 499.342 794.2 485.742 785.8C472.142 777.4 455.542 770.4 435.942 764.8C416.742 759.2 397.342 752.8 377.742 745.6C358.542 738 342.142 726.4 328.542 710.8C314.942 694.8 308.142 675 308.142 651.4C308.142 551 372.742 500.8 501.942 500.8C549.142 500.8 584.742 509.8 608.742 527.8C633.142 545.4 645.342 570 645.342 601.6C645.342 613.2 643.742 624.4 640.542 635.2C637.742 645.6 634.742 653 631.542 657.4L626.742 664.6H520.542C529.342 655.4 533.742 643.8 533.742 629.8C533.742 603.8 516.742 590.8 482.742 590.8C439.942 590.8 418.542 604.4 418.542 631.6C418.542 645.2 425.342 656 438.942 664C452.542 672 468.942 678.4 488.142 683.2C507.742 687.6 527.342 693.2 546.942 700C566.542 706.8 583.142 718.2 596.742 734.2C610.342 749.8 617.142 770.2 617.142 795.4C617.142 846.2 601.942 884 571.542 908.8C541.142 933.2 494.342 945.4 431.142 945.4C367.942 945.4 324.742 934.2 301.542 911.8C284.342 895 275.742 871.8 275.742 842.2C275.742 831 276.942 818.8 279.342 805.6L281.142 796H389.142L387.942 803.2C387.142 807.2 386.742 810.8 386.742 814ZM1089 598.6H941.405L882.005 937H773.405L832.805 598.6H684.605L701.405 505H1105.8L1089 598.6ZM1258.01 937L1261.61 842.8H1161.41L1132.01 937H1017.41L1171.61 505H1369.61L1372.01 937H1258.01ZM1233.41 610L1186.01 762.4H1264.61L1271.21 610H1233.41ZM1678.98 505C1724.58 505 1756.98 515 1776.18 535C1790.58 550.2 1797.78 569.4 1797.78 592.6C1797.78 600.6 1796.98 609 1795.38 617.8L1786.98 664.6C1782.18 690.6 1773.78 711.6 1761.78 727.6C1750.18 743.6 1737.18 755 1722.78 761.8L1777.38 937H1656.18L1605.78 775.6H1568.58L1543.98 937H1428.78L1504.98 505H1678.98ZM1641.18 598.6H1596.18L1580.58 703H1622.58C1643.78 703 1658.98 698 1668.18 688C1677.38 677.6 1681.98 664 1681.98 647.2C1681.98 614.8 1668.38 598.6 1641.18 598.6ZM2096.13 937H1822.53L1898.73 505H2006.73L1947.33 843.4H2112.93L2096.13 937ZM2328.41 505L2252.81 937H2144.21L2220.41 505H2328.41ZM2779.77 505L2610.57 722.8L2703.57 937H2580.57L2521.77 799L2422.77 937H2299.77L2458.77 722.8L2375.97 505H2498.97L2548.77 645.4L2656.77 505H2779.77Z" fill="url(#paint0_linear_50_3)" shape-rendering="crispEdges"/>
</g>
<defs>
<filter id="filter0_d_50_3" x="271.742" y="500.8" width="2512.03" height="452.6" filterUnits="userSpaceOnUse" color-interpolation-filters="sRGB">
<feFlood flood-opacity="0" result="BackgroundImageFix"/>
<feColorMatrix in="SourceAlpha" type="matrix" values="0 0 0 0 0 0 0 0 0 0 0 0 0 0 0 0 0 0 127 0" result="hardAlpha"/>
<feOffset dy="4"/>
<feGaussianBlur stdDeviation="2"/>
<feComposite in2="hardAlpha" operator="out"/>
<feColorMatrix type="matrix" values="0 0 0 0 0 0 0 0 0 0 0 0 0 0 0 0 0 0 0.25 0"/>
<feBlend mode="normal" in2="BackgroundImageFix" result="effect1_dropShadow_50_3"/>
<feBlend mode="normal" in="SourceGraphic" in2="effect1_dropShadow_50_3" result="shape"/>
</filter>
<linearGradient id="paint0_linear_50_3" x1="0" y1="750" x2="3000" y2="750" gradientUnits="userSpaceOnUse">
<stop offset="0.177083" stop-color="white"/>
<stop offset="0.895833" stop-color="#FF1D1D" stop-opacity="0.3"/>
</linearGradient>
</defs>
</svg>
